<svg width="142" height="40" viewBox="0 0 142 40" fill="none" xmlns="http://www.w3.org/2000/svg">
<path d="M17.8211 20.0218V19.8384C18.1598 19.6888 18.4533 19.5082 18.696 19.2909C18.9415 19.0764 19.1278 18.8139 19.2604 18.5091C19.3902 18.2043 19.4552 17.8431 19.458 17.4254C19.4608 17.0133 19.3874 16.6239 19.2378 16.2598C19.0883 15.8957 18.8399 15.574 18.4984 15.2946C18.1569 15.0152 17.6969 14.7951 17.124 14.637C16.5511 14.4762 15.8427 14.3943 14.9989 14.3915H8.63477V26.2448H14.9707C15.8427 26.242 16.5878 26.1601 17.2087 25.9993C17.8267 25.8356 18.3291 25.607 18.7157 25.3078C19.1052 25.0115 19.3902 24.6587 19.5709 24.2495C19.7515 23.8431 19.8418 23.3944 19.839 22.9005C19.8362 22.1893 19.6584 21.5966 19.3112 21.1225C18.9641 20.6483 18.4674 20.2815 17.8211 20.0218ZM14.7872 16.5928C15.4307 16.5956 15.9217 16.7085 16.2576 16.9343C16.5906 17.1601 16.7599 17.4875 16.7628 17.9193C16.7599 18.3511 16.5906 18.6728 16.2576 18.8901C15.9217 19.1074 15.4307 19.2175 14.7872 19.2175H11.4429V16.5928H14.7872ZM14.9283 24.0435H11.4429V20.9955H14.9283C15.5887 20.9983 16.0967 21.1253 16.4495 21.3765C16.8051 21.6277 16.9857 21.9945 16.9885 22.4771C16.9885 22.7932 16.9067 23.0698 16.7458 23.3041C16.585 23.5383 16.3507 23.7189 16.0459 23.8487C15.7383 23.9757 15.3658 24.0406 14.9283 24.0435ZM20.8973 26.2448H30.8738V23.9306H23.7054V21.32H27.713L28.3733 19.288H23.7054V16.6916H30.8738V14.3915H20.8973V26.2448ZM32.0874 26.2448H42.0639V23.9306H34.8955V21.32H38.9032L39.5635 19.288H34.8955V16.6916H42.0639V14.3915H32.0874V26.2448ZM54.651 26.2448L52.3368 22.1526C52.7432 21.9296 53.0988 21.6502 53.3979 21.3144C53.6999 20.9757 53.9342 20.5834 54.1007 20.1375C54.2672 19.6888 54.3519 19.1893 54.3547 18.6389C54.3519 17.2532 53.937 16.1977 53.1185 15.478C52.2973 14.7584 51.0922 14.3971 49.5005 14.3915H43.2775V26.2448H46.0856V22.717H49.9097L51.857 26.2448H54.651ZM46.0856 16.748H49.3452C50.0621 16.748 50.6096 16.9089 50.9878 17.2306C51.3659 17.5496 51.5579 18.0237 51.5607 18.653C51.5579 19.2824 51.3659 19.7565 50.9878 20.0754C50.6096 20.3972 50.0621 20.558 49.3452 20.558H46.0856V16.748ZM55.5965 26.2448H65.573V23.9306H58.4046V21.32H62.5246L63.1594 19.288H58.4046V16.6916H65.573V14.3915H55.5965V26.2448ZM66.7866 26.2448H69.5382V18.272H69.7922L75.3661 26.2448H78.5693V14.3915H75.8177V22.3643H75.5496L70.0462 14.3915H66.7866V26.2448ZM84.9899 26.6399C86.2232 26.6371 87.2561 26.4932 88.0915 26.2053C88.9269 25.9174 89.5562 25.4997 89.9824 24.9494C90.4057 24.3991 90.6202 23.7302 90.6202 22.9428C90.6146 22.3784 90.513 21.9042 90.3126 21.5148C90.1122 21.1281 89.8413 20.8092 89.497 20.558C89.1526 20.3097 88.766 20.1065 88.3314 19.9541C87.8968 19.7989 87.4452 19.6747 86.9739 19.5787C86.5026 19.4828 86.0397 19.3953 85.5825 19.3163L84.2984 19.0905C83.6917 18.9776 83.2429 18.8083 82.9466 18.5768C82.6531 18.3482 82.5063 18.0519 82.5063 17.6935C82.5091 17.2306 82.7152 16.8722 83.13 16.6154C83.5449 16.3586 84.1545 16.2288 84.9617 16.2259C85.5515 16.2288 86.0426 16.305 86.4349 16.4517C86.8271 16.6013 87.1291 16.8101 87.3436 17.0754C87.5581 17.3435 87.6964 17.6596 87.7556 18.018H90.2815C90.2702 17.2871 90.1376 16.6634 89.8808 16.1526C89.624 15.6389 89.2627 15.224 88.797 14.908C88.3314 14.589 87.7782 14.3576 87.1404 14.2137C86.4998 14.0669 85.7942 13.9936 85.0181 13.9964C83.909 13.9992 82.9692 14.1403 82.1931 14.4225C81.4198 14.7048 80.8299 15.1112 80.4235 15.6446C80.0171 16.1751 79.8139 16.8158 79.8111 17.5665C79.8139 18.0801 79.8986 18.5232 80.0623 18.8901C80.226 19.2598 80.4518 19.5731 80.7396 19.8243C81.0275 20.0783 81.3633 20.2871 81.7415 20.4536C82.1197 20.6173 82.5233 20.7556 82.9579 20.8628C83.3897 20.9673 83.8328 21.0604 84.2843 21.1366L85.7519 21.3906C86.2204 21.4696 86.6098 21.5712 86.9175 21.6954C87.2223 21.8196 87.4509 21.9776 87.6033 22.1667C87.7528 22.3558 87.8262 22.5872 87.8262 22.8581C87.8262 23.1714 87.7161 23.4423 87.4988 23.6738C87.2815 23.9052 86.9626 24.0858 86.5393 24.2156C86.1188 24.3426 85.6023 24.4075 84.9899 24.4104C84.3408 24.4047 83.8045 24.3257 83.3784 24.1761C82.9522 24.0265 82.6277 23.8149 82.4047 23.5439C82.1846 23.273 82.0576 22.9485 82.0265 22.5759H79.4866C79.4837 23.9616 79.9466 24.9861 80.8779 25.6493C81.8092 26.3154 83.178 26.6456 84.9899 26.6399Z" fill="white"/>
<path d="M103.208 14.3911H91.5098V16.7476H95.9407V26.2444H98.7629V16.7476H103.208V14.3911ZM112.775 26.2444H115.696L111.096 14.3911H107.145L102.559 26.2444H105.466L106.199 24.2547H112.041L112.775 26.2444ZM106.99 22.124L108.852 17.0581H109.388L111.251 22.124H106.99ZM116.472 26.2444H119.224V18.2716H119.478L125.052 26.2444H128.255V14.3911H125.503V22.3639H125.235L119.732 14.3911H116.472V26.2444ZM141.308 26.2444L136.101 19.6545L141.04 14.3911H137.851L132.46 20.0779H132.248V14.3911H129.454V26.2444H132.248V23.4786L134.295 21.362H134.492L138.373 26.2444H141.308Z" fill="#00D1DE"/>
<path d="M97.3348 27.6738C97.2638 30.9676 95.0867 33.6347 92.4353 33.6347H6.9012C4.2055 33.6347 2 30.8776 2 27.5077V13.1269C2 9.7571 4.2055 7 6.9012 7H92.4353C95.1311 7 97.3366 9.7571 97.3366 13.1269V13.1609" stroke="#00D1DE" stroke-width="2.8222"/>
</svg>
