<svg width="142" height="31" viewBox="0 0 142 31" fill="none" xmlns="http://www.w3.org/2000/svg">
<path d="M17.8211 15.0218V14.8384C18.1598 14.6888 18.4533 14.5082 18.696 14.2909C18.9415 14.0764 19.1278 13.8139 19.2604 13.5091C19.3902 13.2043 19.4552 12.8431 19.458 12.4254C19.4608 12.0133 19.3874 11.6239 19.2378 11.2598C19.0883 10.8957 18.8399 10.574 18.4984 10.2946C18.1569 10.0152 17.6969 9.79512 17.124 9.63702C16.5511 9.47622 15.8427 9.39432 14.9989 9.39152H8.63477V21.2448H14.9707C15.8427 21.242 16.5878 21.1601 17.2087 20.9993C17.8267 20.8356 18.3291 20.607 18.7157 20.3078C19.1052 20.0115 19.3902 19.6587 19.5709 19.2495C19.7515 18.8431 19.8418 18.3944 19.839 17.9005C19.8362 17.1893 19.6584 16.5966 19.3112 16.1225C18.9641 15.6483 18.4674 15.2815 17.8211 15.0218ZM14.7872 11.5928C15.4307 11.5956 15.9217 11.7085 16.2576 11.9343C16.5906 12.1601 16.7599 12.4875 16.7628 12.9193C16.7599 13.3511 16.5906 13.6728 16.2576 13.8901C15.9217 14.1074 15.4307 14.2175 14.7872 14.2175H11.4429V11.5928H14.7872ZM14.9283 19.0435H11.4429V15.9955H14.9283C15.5887 15.9983 16.0967 16.1253 16.4495 16.3765C16.8051 16.6277 16.9857 16.9945 16.9885 17.4771C16.9885 17.7932 16.9067 18.0698 16.7458 18.3041C16.585 18.5383 16.3507 18.7189 16.0459 18.8487C15.7383 18.9757 15.3658 19.0406 14.9283 19.0435ZM20.8973 21.2448H30.8738V18.9306H23.7054V16.32H27.713L28.3733 14.288H23.7054V11.6916H30.8738V9.39152H20.8973V21.2448ZM32.0874 21.2448H42.0639V18.9306H34.8955V16.32H38.9032L39.5635 14.288H34.8955V11.6916H42.0639V9.39152H32.0874V21.2448ZM54.651 21.2448L52.3368 17.1526C52.7432 16.9296 53.0988 16.6502 53.3979 16.3144C53.6999 15.9757 53.9342 15.5834 54.1007 15.1375C54.2672 14.6888 54.3519 14.1893 54.3547 13.6389C54.3519 12.2532 53.937 11.1977 53.1185 10.478C52.2973 9.75842 51.0922 9.39712 49.5005 9.39152H43.2775V21.2448H46.0856V17.717H49.9097L51.857 21.2448H54.651ZM46.0856 11.748H49.3452C50.0621 11.748 50.6096 11.9089 50.9878 12.2306C51.3659 12.5496 51.5579 13.0237 51.5607 13.653C51.5579 14.2824 51.3659 14.7565 50.9878 15.0754C50.6096 15.3972 50.0621 15.558 49.3452 15.558H46.0856V11.748ZM55.5965 21.2448H65.573V18.9306H58.4046V16.32H62.5246L63.1594 14.288H58.4046V11.6916H65.573V9.39152H55.5965V21.2448ZM66.7866 21.2448H69.5382V13.272H69.7922L75.3661 21.2448H78.5693V9.39152H75.8177V17.3643H75.5496L70.0462 9.39152H66.7866V21.2448ZM84.9899 21.6399C86.2232 21.6371 87.2561 21.4932 88.0915 21.2053C88.9269 20.9174 89.5562 20.4997 89.9824 19.9494C90.4057 19.3991 90.6202 18.7302 90.6202 17.9428C90.6146 17.3784 90.513 16.9042 90.3126 16.5148C90.1122 16.1281 89.8413 15.8092 89.497 15.558C89.1526 15.3097 88.766 15.1065 88.3314 14.9541C87.8968 14.7989 87.4452 14.6747 86.9739 14.5787C86.5026 14.4828 86.0397 14.3953 85.5825 14.3163L84.2984 14.0905C83.6917 13.9776 83.2429 13.8083 82.9466 13.5768C82.6531 13.3482 82.5063 13.0519 82.5063 12.6935C82.5091 12.2306 82.7152 11.8722 83.13 11.6154C83.5449 11.3586 84.1545 11.2288 84.9617 11.2259C85.5515 11.2288 86.0426 11.305 86.4349 11.4517C86.8271 11.6013 87.1291 11.8101 87.3436 12.0754C87.5581 12.3435 87.6964 12.6596 87.7556 13.018H90.2815C90.2702 12.2871 90.1376 11.6634 89.8808 11.1526C89.624 10.6389 89.2627 10.224 88.797 9.90802C88.3314 9.58902 87.7782 9.35762 87.1404 9.21372C86.4998 9.06692 85.7942 8.99362 85.0181 8.99642C83.909 8.99922 82.9692 9.14032 82.1931 9.42252C81.4198 9.70482 80.8299 10.1112 80.4235 10.6446C80.0171 11.1751 79.8139 11.8158 79.8111 12.5665C79.8139 13.0801 79.8986 13.5232 80.0623 13.8901C80.226 14.2598 80.4518 14.5731 80.7396 14.8243C81.0275 15.0783 81.3633 15.2871 81.7415 15.4536C82.1197 15.6173 82.5233 15.7556 82.9579 15.8628C83.3897 15.9673 83.8328 16.0604 84.2843 16.1366L85.7519 16.3906C86.2204 16.4696 86.6098 16.5712 86.9175 16.6954C87.2223 16.8196 87.4509 16.9776 87.6033 17.1667C87.7528 17.3558 87.8262 17.5872 87.8262 17.8581C87.8262 18.1714 87.7161 18.4423 87.4988 18.6738C87.2815 18.9052 86.9626 19.0858 86.5393 19.2156C86.1188 19.3426 85.6023 19.4075 84.9899 19.4104C84.3408 19.4047 83.8045 19.3257 83.3784 19.1761C82.9522 19.0265 82.6277 18.8149 82.4047 18.5439C82.1846 18.273 82.0576 17.9485 82.0265 17.5759H79.4866C79.4837 18.9616 79.9466 19.9861 80.8779 20.6493C81.8092 21.3154 83.178 21.6456 84.9899 21.6399Z" fill="#101D34"/>
<path d="M103.208 9.39111H91.5098V11.7476H95.9407V21.2444H98.7629V11.7476H103.208V9.39111ZM112.775 21.2444H115.696L111.096 9.39111H107.145L102.559 21.2444H105.466L106.199 19.2547H112.041L112.775 21.2444ZM106.99 17.124L108.852 12.0581H109.388L111.251 17.124H106.99ZM116.472 21.2444H119.224V13.2716H119.478L125.052 21.2444H128.255V9.39111H125.503V17.3639H125.235L119.732 9.39111H116.472V21.2444ZM141.308 21.2444L136.101 14.6545L141.04 9.39111H137.851L132.46 15.0779H132.248V9.39111H129.454V21.2444H132.248V18.4786L134.295 16.362H134.492L138.373 21.2444H141.308Z" fill="#00D1DE"/>
<path d="M97.3348 22.6738C97.2638 25.9676 95.0867 28.6347 92.4353 28.6347H6.9012C4.2055 28.6347 2 25.8776 2 22.5077V8.1269C2 4.7571 4.2055 2 6.9012 2H92.4353C95.1311 2 97.3366 4.7571 97.3366 8.1269V8.1609" stroke="#00D1DE" stroke-width="2.8222"/>
</svg>
